<svg width="19" height="19" viewBox="0 0 19 19" fill="none" xmlns="http://www.w3.org/2000/svg">
<path d="M9.5 5.14583C10.9557 5.14099 12.3832 5.54704 13.6183 6.31728C14.8535 7.08753 15.8463 8.19071 16.4825 9.5C15.1763 12.1679 12.5083 13.8542 9.5 13.8542C6.49167 13.8542 3.82375 12.1679 2.51751 9.5C3.1537 8.19071 4.14646 7.08753 5.38166 6.31728C6.61685 5.54704 8.04434 5.14099 9.5 5.14583ZM9.5 3.5625C5.54167 3.5625 2.16126 6.02458 0.791672 9.5C2.16126 12.9754 5.54167 15.4375 9.5 15.4375C13.4583 15.4375 16.8388 12.9754 18.2083 9.5C16.8388 6.02458 13.4583 3.5625 9.5 3.5625ZM9.5 7.52083C10.0249 7.52083 10.5283 7.72935 10.8995 8.10052C11.2707 8.47168 11.4792 8.97509 11.4792 9.5C11.4792 10.0249 11.2707 10.5283 10.8995 10.8995C10.5283 11.2706 10.0249 11.4792 9.5 11.4792C8.9751 11.4792 8.47169 11.2706 8.10052 10.8995C7.72936 10.5283 7.52084 10.0249 7.52084 9.5C7.52084 8.97509 7.72936 8.47168 8.10052 8.10052C8.47169 7.72935 8.9751 7.52083 9.5 7.52083ZM9.5 5.9375C7.53667 5.9375 5.9375 7.53667 5.9375 9.5C5.9375 11.4633 7.53667 13.0625 9.5 13.0625C11.4633 13.0625 13.0625 11.4633 13.0625 9.5C13.0625 7.53667 11.4633 5.9375 9.5 5.9375Z" fill="#F75960"/>
</svg>
