<svg width="35" height="35" viewBox="0 0 35 35" fill="none" xmlns="http://www.w3.org/2000/svg">
<path d="M17.5 17.5C18.3021 17.5 18.989 17.2142 19.5606 16.6425C20.1323 16.0708 20.4176 15.3844 20.4167 14.5833C20.4167 13.7812 20.1308 13.0944 19.5592 12.5227C18.9875 11.951 18.3011 11.6657 17.5 11.6667C16.6979 11.6667 16.011 11.9525 15.4394 12.5242C14.8677 13.0958 14.5824 13.7822 14.5833 14.5833C14.5833 15.3854 14.8692 16.0723 15.4408 16.644C16.0125 17.2156 16.6989 17.501 17.5 17.5ZM17.5 28.2187C20.4653 25.4965 22.6649 23.0232 24.099 20.7987C25.533 18.5743 26.25 16.5997 26.25 14.875C26.25 12.2257 25.4051 10.0567 23.7154 8.36791C22.0257 6.67916 19.9539 5.8343 17.5 5.83333C15.0451 5.83333 12.9728 6.67819 11.2831 8.36791C9.5934 10.0576 8.74902 12.2267 8.74999 14.875C8.74999 16.6007 9.46701 18.5758 10.901 20.8002C12.3351 23.0247 14.5347 25.4975 17.5 28.2187ZM17.5 31.5365C17.3055 31.5365 17.1111 31.5 16.9167 31.4271C16.7222 31.3542 16.5521 31.2569 16.4062 31.1354C12.8576 28 10.2083 25.0892 8.45833 22.4029C6.70833 19.7167 5.83333 17.2074 5.83333 14.875C5.83333 11.2292 7.00631 8.32465 9.35229 6.16146C11.6983 3.99826 14.4142 2.91666 17.5 2.91666C20.5868 2.91666 23.3032 3.99826 25.6492 6.16146C27.9951 8.32465 29.1676 11.2292 29.1667 14.875C29.1667 17.2083 28.2917 19.7181 26.5417 22.4044C24.7917 25.0906 22.1424 28.001 18.5937 31.1354C18.4479 31.2569 18.2778 31.3542 18.0833 31.4271C17.8889 31.5 17.6944 31.5365 17.5 31.5365Z" fill="#C44FA3"/>
</svg>
