<svg width="174" height="37" viewBox="0 0 174 37" fill="none" xmlns="http://www.w3.org/2000/svg">
<path d="M11.6303 9.78909V11.6164H4.1484V17.4192H10.2228V19.2464H4.1484V27H1.90135V9.78909H11.6303ZM16.5913 9.78909V27H14.3442V9.78909H16.5913ZM22.668 25.1727H28.6931V27H20.421V9.78909H22.668V25.1727ZM48.5373 9.91255V27H46.2902V14.2585L40.6108 27H39.0305L33.3265 14.2338V27H31.0794V9.91255H33.4993L39.8207 24.0369L46.142 9.91255H48.5373ZM57.8052 27.1728C56.6693 27.1728 55.6487 26.9753 54.7433 26.5802C53.8543 26.1687 53.1547 25.609 52.6444 24.9011C52.134 24.1768 51.8707 23.3455 51.8542 22.4071H54.2494C54.3317 23.2138 54.6609 23.8969 55.2371 24.4566C55.8297 24.9999 56.6858 25.2715 57.8052 25.2715C58.8752 25.2715 59.7147 25.0081 60.3238 24.4813C60.9494 23.9381 61.2622 23.2467 61.2622 22.4071C61.2622 21.7487 61.0811 21.2136 60.7189 20.8021C60.3568 20.3905 59.9041 20.0778 59.3608 19.8638C58.8176 19.6498 58.085 19.4193 57.1632 19.1724C56.0273 18.8761 55.1136 18.5797 54.4222 18.2834C53.7473 17.9871 53.1629 17.5262 52.6691 16.9006C52.1917 16.2586 51.953 15.4026 51.953 14.3326C51.953 13.3942 52.1917 12.5629 52.6691 11.8386C53.1465 11.1143 53.8132 10.5546 54.6692 10.1595C55.5417 9.7644 56.5376 9.56685 57.657 9.56685C59.2703 9.56685 60.5872 9.97017 61.6079 10.7768C62.645 11.5834 63.2294 12.6535 63.3611 13.9869H60.8918C60.8095 13.3284 60.4638 12.7522 59.8547 12.2584C59.2456 11.7481 58.439 11.4929 57.4348 11.4929C56.4964 11.4929 55.731 11.7398 55.1383 12.2337C54.5457 12.7111 54.2494 13.386 54.2494 14.2585C54.2494 14.884 54.4222 15.3944 54.7679 15.7894C55.1301 16.1845 55.5664 16.4891 56.0767 16.7031C56.6034 16.9006 57.336 17.1311 58.2743 17.3945C59.4102 17.7073 60.3238 18.02 61.0152 18.3328C61.7066 18.6291 62.2993 19.0983 62.7931 19.7403C63.287 20.3659 63.5339 21.2219 63.5339 22.3084C63.5339 23.1479 63.3117 23.9381 62.8672 24.6789C62.4227 25.4197 61.7643 26.0205 60.8918 26.4815C60.0193 26.9424 58.9904 27.1728 57.8052 27.1728ZM69.0877 11.6164V17.3698H75.3597V19.2218H69.0877V25.148H76.1004V27H66.8406V9.7644H76.1004V11.6164H69.0877ZM89.674 23.1726H82.1674L80.7846 27H78.414L84.6366 9.88786H87.2294L93.4273 27H91.0568L89.674 23.1726ZM89.032 21.3453L85.9207 12.6535L82.8094 21.3453H89.032ZM105.202 27L101.103 19.9625H98.3863V27H96.1393V9.78909H101.695C102.996 9.78909 104.09 10.0113 104.979 10.4558C105.885 10.9003 106.56 11.5011 107.004 12.2584C107.449 13.0156 107.671 13.8799 107.671 14.8511C107.671 16.0364 107.325 17.0817 106.634 17.9871C105.959 18.8925 104.938 19.4934 103.572 19.7897L107.893 27H105.202ZM98.3863 18.16H101.695C102.913 18.16 103.827 17.8636 104.436 17.271C105.045 16.6619 105.35 15.8553 105.35 14.8511C105.35 13.8305 105.045 13.0403 104.436 12.4806C103.843 11.9209 102.93 11.6411 101.695 11.6411H98.3863V18.16ZM110.323 18.3822C110.323 16.7031 110.701 15.1968 111.459 13.8634C112.216 12.5135 113.245 11.46 114.545 10.7027C115.862 9.94548 117.319 9.56685 118.916 9.56685C120.793 9.56685 122.431 10.0196 123.83 10.925C125.229 11.8304 126.25 13.1144 126.892 14.777H124.2C123.723 13.7399 123.031 12.9415 122.126 12.3818C121.237 11.8221 120.167 11.5423 118.916 11.5423C117.714 11.5423 116.636 11.8221 115.681 12.3818C114.726 12.9415 113.977 13.7399 113.434 14.777C112.891 15.7977 112.619 16.9994 112.619 18.3822C112.619 19.7485 112.891 20.9503 113.434 21.9874C113.977 23.008 114.726 23.7982 115.681 24.3579C116.636 24.9176 117.714 25.1974 118.916 25.1974C120.167 25.1974 121.237 24.9258 122.126 24.3826C123.031 23.8229 123.723 23.0245 124.2 21.9874H126.892C126.25 23.6335 125.229 24.9093 123.83 25.8147C122.431 26.7037 120.793 27.1482 118.916 27.1482C117.319 27.1482 115.862 26.7778 114.545 26.037C113.245 25.2797 112.216 24.2344 111.459 22.901C110.701 21.5676 110.323 20.0613 110.323 18.3822ZM143.497 9.78909V27H141.25V19.1971H132.484V27H130.237V9.78909H132.484V17.3451H141.25V9.78909H143.497ZM149.581 11.6164V17.3698H155.853V19.2218H149.581V25.148H156.593V27H147.334V9.7644H156.593V11.6164H149.581ZM169.056 27L164.957 19.9625H162.24V27H159.993V9.78909H165.549C166.85 9.78909 167.945 10.0113 168.833 10.4558C169.739 10.9003 170.414 11.5011 170.858 12.2584C171.303 13.0156 171.525 13.8799 171.525 14.8511C171.525 16.0364 171.179 17.0817 170.488 17.9871C169.813 18.8925 168.792 19.4934 167.426 19.7897L171.747 27H169.056ZM162.24 18.16H165.549C166.767 18.16 167.681 17.8636 168.29 17.271C168.899 16.6619 169.204 15.8553 169.204 14.8511C169.204 13.8305 168.899 13.0403 168.29 12.4806C167.698 11.9209 166.784 11.6411 165.549 11.6411H162.24V18.16Z" fill="white"/>
<path d="M11.6303 9.78909H12.6592V8.76022H11.6303V9.78909ZM11.6303 11.6164V12.6452H12.6592V11.6164H11.6303ZM4.1484 11.6164V10.5875H3.11953V11.6164H4.1484ZM4.1484 17.4192H3.11953V18.448H4.1484V17.4192ZM10.2228 17.4192H11.2517V16.3903H10.2228V17.4192ZM10.2228 19.2464V20.2753H11.2517V19.2464H10.2228ZM4.1484 19.2464V18.2176H3.11953V19.2464H4.1484ZM4.1484 27V28.0289H5.17727V27H4.1484ZM1.90135 27H0.872481V28.0289H1.90135V27ZM1.90135 9.78909V8.76022H0.872481V9.78909H1.90135ZM10.6015 9.78909V11.6164H12.6592V9.78909H10.6015ZM11.6303 10.5875H4.1484V12.6452H11.6303V10.5875ZM3.11953 11.6164V17.4192H5.17727V11.6164H3.11953ZM4.1484 18.448H10.2228V16.3903H4.1484V18.448ZM9.19397 17.4192V19.2464H11.2517V17.4192H9.19397ZM10.2228 18.2176H4.1484V20.2753H10.2228V18.2176ZM3.11953 19.2464V27H5.17727V19.2464H3.11953ZM4.1484 25.9711H1.90135V28.0289H4.1484V25.9711ZM2.93022 27V9.78909H0.872481V27H2.93022ZM1.90135 10.818H11.6303V8.76022H1.90135V10.818ZM16.5913 9.78909H17.6201V8.76022H16.5913V9.78909ZM16.5913 27V28.0289H17.6201V27H16.5913ZM14.3442 27H13.3154V28.0289H14.3442V27ZM14.3442 9.78909V8.76022H13.3154V9.78909H14.3442ZM15.5624 9.78909V27H17.6201V9.78909H15.5624ZM16.5913 25.9711H14.3442V28.0289H16.5913V25.9711ZM15.3731 27V9.78909H13.3154V27H15.3731ZM14.3442 10.818H16.5913V8.76022H14.3442V10.818ZM22.668 25.1727H21.6392V26.2016H22.668V25.1727ZM28.6931 25.1727H29.7219V24.1439H28.6931V25.1727ZM28.6931 27V28.0289H29.7219V27H28.6931ZM20.421 27H19.3921V28.0289H20.421V27ZM20.421 9.78909V8.76022H19.3921V9.78909H20.421ZM22.668 9.78909H23.6969V8.76022H22.668V9.78909ZM22.668 26.2016H28.6931V24.1439H22.668V26.2016ZM27.6642 25.1727V27H29.7219V25.1727H27.6642ZM28.6931 25.9711H20.421V28.0289H28.6931V25.9711ZM21.4498 27V9.78909H19.3921V27H21.4498ZM20.421 10.818H22.668V8.76022H20.421V10.818ZM21.6392 9.78909V25.1727H23.6969V9.78909H21.6392ZM48.5373 9.91255H49.5661V8.88369H48.5373V9.91255ZM48.5373 27V28.0289H49.5661V27H48.5373ZM46.2902 27H45.2613V28.0289H46.2902V27ZM46.2902 14.2585H47.3191L45.3505 13.8396L46.2902 14.2585ZM40.6108 27V28.0289H41.2787L41.5506 27.4189L40.6108 27ZM39.0305 27L38.0911 27.4197L38.3633 28.0289H39.0305V27ZM33.3265 14.2338L34.2658 13.8141L32.2976 14.2338H33.3265ZM33.3265 27V28.0289H34.3553V27H33.3265ZM31.0794 27H30.0505V28.0289H31.0794V27ZM31.0794 9.91255V8.88369H30.0505V9.91255H31.0794ZM33.4993 9.91255L34.4384 9.49225L34.166 8.88369H33.4993V9.91255ZM39.8207 24.0369L38.8816 24.4572L39.8207 26.5555L40.7598 24.4572L39.8207 24.0369ZM46.142 9.91255V8.88369H45.4753L45.2029 9.49225L46.142 9.91255ZM47.5084 9.91255V27H49.5661V9.91255H47.5084ZM48.5373 25.9711H46.2902V28.0289H48.5373V25.9711ZM47.3191 27V14.2585H45.2613V27H47.3191ZM45.3505 13.8396L39.6711 26.5811L41.5506 27.4189L47.2299 14.6774L45.3505 13.8396ZM40.6108 25.9711H39.0305V28.0289H40.6108V25.9711ZM39.9699 26.5803L34.2658 13.8141L32.3871 14.6535L38.0911 27.4197L39.9699 26.5803ZM32.2976 14.2338V27H34.3553V14.2338H32.2976ZM33.3265 25.9711H31.0794V28.0289H33.3265V25.9711ZM32.1083 27V9.91255H30.0505V27H32.1083ZM31.0794 10.9414H33.4993V8.88369H31.0794V10.9414ZM32.5602 10.3329L38.8816 24.4572L40.7598 23.6166L34.4384 9.49225L32.5602 10.3329ZM40.7598 24.4572L47.0812 10.3329L45.2029 9.49225L38.8816 23.6166L40.7598 24.4572ZM46.142 10.9414H48.5373V8.88369H46.142V10.9414ZM54.7433 26.5802L54.311 27.5139L54.3213 27.5187L54.3318 27.5232L54.7433 26.5802ZM52.6444 24.9011L51.8032 25.4937L51.8098 25.5028L52.6444 24.9011ZM51.8542 22.4071V21.3783H50.8071L50.8255 22.4252L51.8542 22.4071ZM54.2494 22.4071L55.273 22.3027L55.1786 21.3783H54.2494V22.4071ZM55.2371 24.4566L54.5202 25.1946L54.5309 25.205L54.5419 25.2151L55.2371 24.4566ZM60.3238 24.4813L60.9969 25.2595L60.9985 25.2582L60.3238 24.4813ZM60.7189 20.8021L59.9465 21.4818L59.9465 21.4818L60.7189 20.8021ZM59.3608 19.8638L58.9837 20.821L58.9837 20.821L59.3608 19.8638ZM57.1632 19.1724L57.4294 18.1785L57.4229 18.1768L57.1632 19.1724ZM54.4222 18.2834L54.0086 19.2255L54.017 19.2291L54.4222 18.2834ZM52.6691 16.9006L51.8434 17.5146L51.8523 17.5265L51.8615 17.5382L52.6691 16.9006ZM52.6691 11.8386L53.5281 12.4048L53.5281 12.4048L52.6691 11.8386ZM54.6692 10.1595L54.2448 9.22221L54.238 9.22531L54.6692 10.1595ZM61.6079 10.7768L60.9699 11.584L60.9762 11.5889L61.6079 10.7768ZM63.3611 13.9869V15.0157H64.4965L64.3849 13.8857L63.3611 13.9869ZM60.8918 13.9869L59.8708 14.1145L59.9835 15.0157H60.8918V13.9869ZM59.8547 12.2584L59.1939 13.047L59.2003 13.0523L59.2067 13.0576L59.8547 12.2584ZM55.1383 12.2337L55.7838 13.0349L55.7904 13.0296L55.797 13.0241L55.1383 12.2337ZM54.7679 15.7894L53.9936 16.467L54.0015 16.4759L54.0095 16.4847L54.7679 15.7894ZM56.0767 16.7031L55.6788 17.6519L55.697 17.6595L55.7154 17.6664L56.0767 16.7031ZM58.2743 17.3945L57.9963 18.3851L58.0012 18.3864L58.2743 17.3945ZM61.0152 18.3328L60.5912 19.2702L60.6005 19.2745L60.6099 19.2785L61.0152 18.3328ZM62.7931 19.7403L61.9776 20.3677L61.9856 20.3778L62.7931 19.7403ZM62.8672 24.6789L63.7494 25.2082L63.7494 25.2082L62.8672 24.6789ZM60.8918 26.4815L60.4112 25.5717L60.8918 26.4815ZM57.8052 26.144C56.7898 26.144 55.9123 25.9678 55.1547 25.6372L54.3318 27.5232C55.385 27.9828 56.5488 28.2017 57.8052 28.2017V26.144ZM55.1755 25.6466C54.4269 25.3 53.8737 24.847 53.479 24.2994L51.8098 25.5028C52.4356 26.3709 53.2817 27.0374 54.311 27.5139L55.1755 25.6466ZM53.4854 24.3085C53.101 23.7628 52.896 23.1343 52.8829 22.3891L50.8255 22.4252C50.8453 23.5566 51.1671 24.5907 51.8033 25.4937L53.4854 24.3085ZM51.8542 23.436H54.2494V21.3783H51.8542V23.436ZM53.2258 22.5116C53.3325 23.5564 53.7687 24.4646 54.5202 25.1946L55.954 23.7187C55.5531 23.3292 55.331 22.8711 55.273 22.3027L53.2258 22.5116ZM54.5419 25.2151C55.3877 25.9904 56.5297 26.3004 57.8052 26.3004V24.2426C56.8418 24.2426 56.2718 24.0094 55.9323 23.6982L54.5419 25.2151ZM57.8052 26.3004C59.0401 26.3004 60.1468 25.9947 60.9969 25.2595L59.6508 23.7031C59.2827 24.0215 58.7103 24.2426 57.8052 24.2426V26.3004ZM60.9985 25.2582C61.8525 24.5165 62.291 23.5401 62.291 22.4071H60.2333C60.2333 22.9532 60.0463 23.3596 59.6492 23.7045L60.9985 25.2582ZM62.291 22.4071C62.291 21.5513 62.0506 20.758 61.4913 20.1224L59.9465 21.4818C60.1115 21.6693 60.2333 21.946 60.2333 22.4071H62.291ZM61.4913 20.1224C61.0143 19.5803 60.4229 19.1764 59.7379 18.9065L58.9837 20.821C59.3852 20.9792 59.6992 21.2008 59.9465 21.4818L61.4913 20.1224ZM59.7379 18.9065C59.143 18.6722 58.3685 18.4301 57.4294 18.1785L56.8969 20.1662C57.8015 20.4085 58.4921 20.6274 58.9837 20.821L59.7379 18.9065ZM57.4229 18.1768C56.3125 17.8871 55.4532 17.6059 54.8275 17.3377L54.017 19.2291C54.7741 19.5536 55.7421 19.865 56.9034 20.1679L57.4229 18.1768ZM54.8358 17.3413C54.3275 17.1182 53.8747 16.7674 53.4766 16.2631L51.8615 17.5382C52.4511 18.2849 53.1671 18.856 54.0087 19.2255L54.8358 17.3413ZM53.4947 16.2867C53.1875 15.8735 52.9818 15.2554 52.9818 14.3326H50.9241C50.9241 15.5498 51.1959 16.6437 51.8434 17.5146L53.4947 16.2867ZM52.9818 14.3326C52.9818 13.5783 53.1706 12.9473 53.5281 12.4048L51.81 11.2724C51.2127 12.1786 50.9241 13.2101 50.9241 14.3326H52.9818ZM53.5281 12.4048C53.8908 11.8544 54.4028 11.4156 55.1003 11.0937L54.238 9.22531C53.2235 9.69353 52.4021 10.3741 51.81 11.2724L53.5281 12.4048ZM55.0936 11.0967C55.8121 10.7714 56.6595 10.5957 57.657 10.5957V8.53799C56.4157 8.53799 55.2712 8.75742 54.2448 9.22223L55.0936 11.0967ZM57.657 10.5957C59.0957 10.5957 60.1711 10.9527 60.9699 11.584L62.2458 9.9696C61.0034 8.98768 59.4449 8.53799 57.657 8.53799V10.5957ZM60.9762 11.5889C61.7857 12.2185 62.2326 13.029 62.3372 14.088L64.3849 13.8857C64.2261 12.2779 63.5043 10.9483 62.2395 9.96466L60.9762 11.5889ZM63.3611 12.958H60.8918V15.0157H63.3611V12.958ZM61.9127 13.8593C61.7915 12.8901 61.278 12.0879 60.5027 11.4592L59.2067 13.0576C59.6495 13.4166 59.8274 13.7667 59.8708 14.1145L61.9127 13.8593ZM60.5154 11.4697C59.6765 10.7669 58.6152 10.464 57.4348 10.464V12.5218C58.2627 12.5218 58.8146 12.7292 59.1939 13.047L60.5154 11.4697ZM57.4348 10.464C56.3098 10.464 55.2949 10.764 54.4797 11.4433L55.797 13.0241C56.1671 12.7157 56.6831 12.5218 57.4348 12.5218V10.464ZM54.4929 11.4324C53.6205 12.1352 53.2205 13.126 53.2205 14.2585H55.2783C55.2783 13.646 55.4709 13.2869 55.7838 13.0349L54.4929 11.4324ZM53.2205 14.2585C53.2205 15.0831 53.4535 15.8497 53.9936 16.467L55.5423 15.1119C55.391 14.939 55.2783 14.685 55.2783 14.2585H53.2205ZM54.0095 16.4847C54.4754 16.9929 55.0359 17.3823 55.6788 17.6519L56.4746 15.7543C56.0968 15.5958 55.7848 15.3761 55.5264 15.0942L54.0095 16.4847ZM55.7154 17.6664C56.2822 17.879 57.0469 18.1186 57.9963 18.3851L58.5524 16.4039C57.6251 16.1436 56.9247 15.9223 56.4379 15.7397L55.7154 17.6664ZM58.0012 18.3864C59.1103 18.6918 59.9675 18.9881 60.5912 19.2702L61.4393 17.3954C60.6802 17.052 59.7101 16.7227 58.5475 16.4025L58.0012 18.3864ZM60.6099 19.2785C61.1273 19.5002 61.5825 19.854 61.9776 20.3676L63.6086 19.113C63.016 18.3426 62.286 17.758 61.4205 17.3871L60.6099 19.2785ZM61.9856 20.3778C62.2918 20.7657 62.505 21.3699 62.505 22.3084H64.5628C64.5628 21.0738 64.2821 19.966 63.6007 19.1028L61.9856 20.3778ZM62.505 22.3084C62.505 22.9558 62.3364 23.5638 61.985 24.1495L63.7494 25.2082C64.2869 24.3124 64.5628 23.34 64.5628 22.3084H62.505ZM61.985 24.1495C61.6503 24.7074 61.1417 25.1858 60.4112 25.5717L61.3724 27.3912C62.3868 26.8552 63.1952 26.132 63.7494 25.2082L61.985 24.1495ZM60.4112 25.5717C59.7138 25.9401 58.8564 26.144 57.8052 26.144V28.2017C59.1245 28.2017 60.3248 27.9446 61.3724 27.3912L60.4112 25.5717ZM69.0877 11.6164V10.5875H68.0588V11.6164H69.0877ZM69.0877 17.3698H68.0588V18.3987H69.0877V17.3698ZM75.3597 17.3698H76.3885V16.3409H75.3597V17.3698ZM75.3597 19.2218V20.2506H76.3885V19.2218H75.3597ZM69.0877 19.2218V18.1929H68.0588V19.2218H69.0877ZM69.0877 25.148H68.0588V26.1769H69.0877V25.148ZM76.1004 25.148H77.1293V24.1192H76.1004V25.148ZM76.1004 27V28.0289H77.1293V27H76.1004ZM66.8406 27H65.8118V28.0289H66.8406V27ZM66.8406 9.7644V8.73553H65.8118V9.7644H66.8406ZM76.1004 9.7644H77.1293V8.73553H76.1004V9.7644ZM76.1004 11.6164V12.6452H77.1293V11.6164H76.1004ZM68.0588 11.6164V17.3698H70.1165V11.6164H68.0588ZM69.0877 18.3987H75.3597V16.3409H69.0877V18.3987ZM74.3308 17.3698V19.2218H76.3885V17.3698H74.3308ZM75.3597 18.1929H69.0877V20.2506H75.3597V18.1929ZM68.0588 19.2218V25.148H70.1165V19.2218H68.0588ZM69.0877 26.1769H76.1004V24.1192H69.0877V26.1769ZM75.0716 25.148V27H77.1293V25.148H75.0716ZM76.1004 25.9711H66.8406V28.0289H76.1004V25.9711ZM67.8695 27V9.7644H65.8118V27H67.8695ZM66.8406 10.7933H76.1004V8.73553H66.8406V10.7933ZM75.0716 9.7644V11.6164H77.1293V9.7644H75.0716ZM76.1004 10.5875H69.0877V12.6452H76.1004V10.5875ZM89.674 23.1726L90.6416 22.823L90.3962 22.1437H89.674V23.1726ZM82.1674 23.1726V22.1437H81.4451L81.1997 22.823L82.1674 23.1726ZM80.7846 27V28.0289H81.5068L81.7522 27.3496L80.7846 27ZM78.414 27L77.4471 26.6484L76.9451 28.0289H78.414V27ZM84.6366 9.88786V8.85899H83.916L83.6697 9.53625L84.6366 9.88786ZM87.2294 9.88786L88.1968 9.53749L87.951 8.85899H87.2294V9.88786ZM93.4273 27V28.0289H94.8942L94.3947 26.6496L93.4273 27ZM91.0568 27L90.0891 27.3496L90.3345 28.0289H91.0568V27ZM89.032 21.3453V22.3742H90.4931L90.0006 20.9986L89.032 21.3453ZM85.9207 12.6535L86.8893 12.3067L85.9207 9.60056L84.952 12.3067L85.9207 12.6535ZM82.8094 21.3453L81.8407 20.9986L81.3483 22.3742H82.8094V21.3453ZM89.674 22.1437H82.1674V24.2015H89.674V22.1437ZM81.1997 22.823L79.8169 26.6504L81.7522 27.3496L83.135 23.5222L81.1997 22.823ZM80.7846 25.9711H78.414V28.0289H80.7846V25.9711ZM79.381 27.3516L85.6036 10.2395L83.6697 9.53625L77.4471 26.6484L79.381 27.3516ZM84.6366 10.9167H87.2294V8.85899H84.6366V10.9167ZM86.262 10.2382L92.4599 27.3504L94.3947 26.6496L88.1968 9.53749L86.262 10.2382ZM93.4273 25.9711H91.0568V28.0289H93.4273V25.9711ZM92.0244 26.6504L90.6416 22.823L88.7063 23.5222L90.0891 27.3496L92.0244 26.6504ZM90.0006 20.9986L86.8893 12.3067L84.952 13.0002L88.0633 21.6921L90.0006 20.9986ZM84.952 12.3067L81.8407 20.9986L83.7781 21.6921L86.8893 13.0002L84.952 12.3067ZM82.8094 22.3742H89.032V20.3165H82.8094V22.3742ZM105.202 27L104.312 27.5178L104.61 28.0289H105.202V27ZM101.103 19.9625L101.992 19.4447L101.694 18.9337H101.103V19.9625ZM98.3863 19.9625V18.9337H97.3574V19.9625H98.3863ZM98.3863 27V28.0289H99.4152V27H98.3863ZM96.1393 27H95.1104V28.0289H96.1393V27ZM96.1393 9.78909V8.76022H95.1104V9.78909H96.1393ZM104.979 10.4558L104.519 11.3761L104.526 11.3794L104.979 10.4558ZM106.634 17.9871L105.816 17.3626L105.809 17.3722L106.634 17.9871ZM103.572 19.7897L103.354 18.7842L101.952 19.0882L102.689 20.3186L103.572 19.7897ZM107.893 27V28.0289H109.709L108.776 26.4711L107.893 27ZM98.3863 18.16H97.3574V19.1888H98.3863V18.16ZM104.436 17.271L105.154 18.0085L105.164 17.9985L104.436 17.271ZM104.436 12.4806L103.73 13.2287L103.74 13.2382L104.436 12.4806ZM98.3863 11.6411V10.6122H97.3574V11.6411H98.3863ZM106.091 26.4822L101.992 19.4447L100.213 20.4804L104.312 27.5178L106.091 26.4822ZM101.103 18.9337H98.3863V20.9914H101.103V18.9337ZM97.3574 19.9625V27H99.4152V19.9625H97.3574ZM98.3863 25.9711H96.1393V28.0289H98.3863V25.9711ZM97.1681 27V9.78909H95.1104V27H97.1681ZM96.1393 10.818H101.695V8.76022H96.1393V10.818ZM101.695 10.818C102.883 10.818 103.81 11.0216 104.519 11.376L105.439 9.53555C104.371 9.0011 103.108 8.76022 101.695 8.76022V10.818ZM104.526 11.3794C105.278 11.7486 105.789 12.2206 106.117 12.7792L107.891 11.7376C107.33 10.7817 106.491 10.052 105.433 9.53221L104.526 11.3794ZM106.117 12.7792C106.459 13.3622 106.642 14.043 106.642 14.8511H108.7C108.7 13.7167 108.438 12.6691 107.891 11.7376L106.117 12.7792ZM106.642 14.8511C106.642 15.8205 106.365 16.6443 105.816 17.3627L107.451 18.6115C108.286 17.5192 108.7 16.2523 108.7 14.8511H106.642ZM105.809 17.3722C105.315 18.0342 104.537 18.5275 103.354 18.7842L103.79 20.7952C105.339 20.4592 106.602 19.7509 107.459 18.602L105.809 17.3722ZM102.689 20.3186L107.011 27.5289L108.776 26.4711L104.454 19.2608L102.689 20.3186ZM107.893 25.9711H105.202V28.0289H107.893V25.9711ZM98.3863 19.1888H101.695V17.1311H98.3863V19.1888ZM101.695 19.1888C103.065 19.1888 104.283 18.8558 105.154 18.0084L103.719 16.5336C103.371 16.8715 102.762 17.1311 101.695 17.1311V19.1888ZM105.164 17.9985C105.998 17.1645 106.379 16.0793 106.379 14.8511H104.321C104.321 15.6313 104.093 16.1594 103.709 16.5435L105.164 17.9985ZM106.379 14.8511C106.379 13.6149 106.001 12.5217 105.132 11.723L103.74 13.2382C104.089 13.5589 104.321 14.046 104.321 14.8511H106.379ZM105.143 11.7326C104.281 10.9187 103.061 10.6122 101.695 10.6122V12.6699C102.799 12.6699 103.406 12.9231 103.73 13.2286L105.143 11.7326ZM101.695 10.6122H98.3863V12.6699H101.695V10.6122ZM97.3574 11.6411V18.16H99.4152V11.6411H97.3574ZM111.459 13.8634L112.353 14.3715L112.356 14.3668L111.459 13.8634ZM114.545 10.7027L114.032 9.81078L114.028 9.8136L114.545 10.7027ZM123.83 10.925L124.389 10.0612L124.389 10.0612L123.83 10.925ZM126.892 14.777V15.8059H128.392L127.851 14.4064L126.892 14.777ZM124.2 14.777L123.266 15.2073L123.541 15.8059H124.2V14.777ZM122.126 12.3818L121.578 13.2525L121.585 13.257L122.126 12.3818ZM115.681 12.3818L116.201 13.2694L116.201 13.2694L115.681 12.3818ZM113.434 14.777L114.342 15.2605L114.345 15.2544L113.434 14.777ZM113.434 21.9874L112.523 22.4648L112.526 22.4708L113.434 21.9874ZM115.681 24.3579L116.201 23.4703L116.201 23.4703L115.681 24.3579ZM122.126 24.3826L122.662 25.2605L122.667 25.2577L122.126 24.3826ZM124.2 21.9874V20.9585H123.541L123.266 21.5571L124.2 21.9874ZM126.892 21.9874L127.85 22.3612L128.397 20.9585H126.892V21.9874ZM123.83 25.8147L124.382 26.6832L124.389 26.6786L123.83 25.8147ZM114.545 26.037L114.028 26.9261L114.034 26.93L114.041 26.9337L114.545 26.037ZM111.459 22.901L112.353 22.3929L111.459 22.901ZM111.352 18.3822C111.352 16.8638 111.692 15.5356 112.353 14.3715L110.564 13.3553C109.711 14.8581 109.294 16.5423 109.294 18.3822H111.352ZM112.356 14.3668C113.026 13.1723 113.926 12.254 115.063 11.5918L114.028 9.8136C112.564 10.666 111.406 11.8548 110.561 13.36L112.356 14.3668ZM115.058 11.5947C116.211 10.9318 117.49 10.5957 118.916 10.5957V8.53799C117.149 8.53799 115.513 8.95917 114.032 9.81079L115.058 11.5947ZM118.916 10.5957C120.62 10.5957 122.058 11.0043 123.271 11.7888L124.389 10.0612C122.803 9.03481 120.965 8.53799 118.916 8.53799V10.5957ZM123.271 11.7888C124.475 12.5678 125.362 13.6727 125.932 15.1477L127.851 14.4064C127.137 12.5561 125.983 11.0929 124.389 10.0612L123.271 11.7888ZM126.892 13.7482H124.2V15.8059H126.892V13.7482ZM125.135 14.3468C124.579 13.1399 123.757 12.1806 122.667 11.5067L121.585 13.257C122.306 13.7025 122.866 14.34 123.266 15.2073L125.135 14.3468ZM122.674 11.5112C121.592 10.8298 120.324 10.5134 118.916 10.5134V12.5711C120.01 12.5711 120.882 12.8145 121.578 13.2525L122.674 11.5112ZM118.916 10.5134C117.547 10.5134 116.287 10.8342 115.161 11.4942L116.201 13.2694C116.985 12.8101 117.881 12.5711 118.916 12.5711V10.5134ZM115.161 11.4942C114.03 12.1571 113.15 13.1022 112.523 14.2996L114.345 15.2544C114.805 14.3777 115.423 13.726 116.201 13.2694L115.161 11.4942ZM112.526 14.2936C111.889 15.4896 111.59 16.8637 111.59 18.3822H113.648C113.648 17.1351 113.892 16.1057 114.342 15.2605L112.526 14.2936ZM111.59 18.3822C111.59 19.887 111.89 21.2575 112.523 22.4648L114.345 21.51C113.891 20.643 113.648 19.6101 113.648 18.3822H111.59ZM112.526 22.4708C113.154 23.6516 114.034 24.5851 115.161 25.2455L116.201 23.4703C115.418 23.0112 114.8 22.3644 114.342 21.5039L112.526 22.4708ZM115.161 25.2455C116.287 25.9055 117.547 26.2263 118.916 26.2263V24.1686C117.881 24.1686 116.985 23.9296 116.201 23.4703L115.161 25.2455ZM118.916 26.2263C120.318 26.2263 121.582 25.9206 122.662 25.2605L121.589 23.5046C120.892 23.931 120.016 24.1686 118.916 24.1686V26.2263ZM122.667 25.2577C123.757 24.5838 124.579 23.6245 125.135 22.4176L123.266 21.5571C122.866 22.4244 122.306 23.0619 121.585 23.5074L122.667 25.2577ZM124.2 23.0162H126.892V20.9585H124.2V23.0162ZM125.933 21.6135C125.365 23.0713 124.478 24.1701 123.271 24.9509L124.389 26.6786C125.981 25.6485 127.135 24.1957 127.85 22.3612L125.933 21.6135ZM123.278 24.9463C122.065 25.7171 120.624 26.1193 118.916 26.1193V28.177C120.961 28.177 122.796 27.6903 124.381 26.6832L123.278 24.9463ZM118.916 26.1193C117.485 26.1193 116.204 25.7894 115.05 25.1402L114.041 26.9337C115.521 27.7661 117.153 28.177 118.916 28.177V26.1193ZM115.063 25.1479C113.923 24.4839 113.023 23.5714 112.353 22.3929L110.564 23.4091C111.409 24.8974 112.567 26.0756 114.028 26.9261L115.063 25.1479ZM112.353 22.3929C111.692 21.2288 111.352 19.9006 111.352 18.3822H109.294C109.294 20.2221 109.711 21.9063 110.564 23.4091L112.353 22.3929ZM143.497 9.78909H144.526V8.76022H143.497V9.78909ZM143.497 27V28.0289H144.526V27H143.497ZM141.25 27H140.221V28.0289H141.25V27ZM141.25 19.1971H142.278V18.1682H141.25V19.1971ZM132.484 19.1971V18.1682H131.455V19.1971H132.484ZM132.484 27V28.0289H133.513V27H132.484ZM130.237 27H129.208V28.0289H130.237V27ZM130.237 9.78909V8.76022H129.208V9.78909H130.237ZM132.484 9.78909H133.513V8.76022H132.484V9.78909ZM132.484 17.3451H131.455V18.374H132.484V17.3451ZM141.25 17.3451V18.374H142.278V17.3451H141.25ZM141.25 9.78909V8.76022H140.221V9.78909H141.25ZM142.468 9.78909V27H144.526V9.78909H142.468ZM143.497 25.9711H141.25V28.0289H143.497V25.9711ZM142.278 27V19.1971H140.221V27H142.278ZM141.25 18.1682H132.484V20.2259H141.25V18.1682ZM131.455 19.1971V27H133.513V19.1971H131.455ZM132.484 25.9711H130.237V28.0289H132.484V25.9711ZM131.265 27V9.78909H129.208V27H131.265ZM130.237 10.818H132.484V8.76022H130.237V10.818ZM131.455 9.78909V17.3451H133.513V9.78909H131.455ZM132.484 18.374H141.25V16.3162H132.484V18.374ZM142.278 17.3451V9.78909H140.221V17.3451H142.278ZM141.25 10.818H143.497V8.76022H141.25V10.818ZM149.581 11.6164V10.5875H148.552V11.6164H149.581ZM149.581 17.3698H148.552V18.3987H149.581V17.3698ZM155.853 17.3698H156.881V16.3409H155.853V17.3698ZM155.853 19.2218V20.2506H156.881V19.2218H155.853ZM149.581 19.2218V18.1929H148.552V19.2218H149.581ZM149.581 25.148H148.552V26.1769H149.581V25.148ZM156.593 25.148H157.622V24.1192H156.593V25.148ZM156.593 27V28.0289H157.622V27H156.593ZM147.334 27H146.305V28.0289H147.334V27ZM147.334 9.7644V8.73553H146.305V9.7644H147.334ZM156.593 9.7644H157.622V8.73553H156.593V9.7644ZM156.593 11.6164V12.6452H157.622V11.6164H156.593ZM148.552 11.6164V17.3698H150.609V11.6164H148.552ZM149.581 18.3987H155.853V16.3409H149.581V18.3987ZM154.824 17.3698V19.2218H156.881V17.3698H154.824ZM155.853 18.1929H149.581V20.2506H155.853V18.1929ZM148.552 19.2218V25.148H150.609V19.2218H148.552ZM149.581 26.1769H156.593V24.1192H149.581V26.1769ZM155.564 25.148V27H157.622V25.148H155.564ZM156.593 25.9711H147.334V28.0289H156.593V25.9711ZM148.362 27V9.7644H146.305V27H148.362ZM147.334 10.7933H156.593V8.73553H147.334V10.7933ZM155.564 9.7644V11.6164H157.622V9.7644H155.564ZM156.593 10.5875H149.581V12.6452H156.593V10.5875ZM169.056 27L168.167 27.5178L168.464 28.0289H169.056V27ZM164.957 19.9625L165.846 19.4447L165.548 18.9337H164.957V19.9625ZM162.24 19.9625V18.9337H161.212V19.9625H162.24ZM162.24 27V28.0289H163.269V27H162.24ZM159.993 27H158.965V28.0289H159.993V27ZM159.993 9.78909V8.76022H158.965V9.78909H159.993ZM168.833 10.4558L168.373 11.3761L168.38 11.3794L168.833 10.4558ZM170.488 17.9871L169.67 17.3626L169.663 17.3722L170.488 17.9871ZM167.426 19.7897L167.208 18.7842L165.806 19.0882L166.543 20.3186L167.426 19.7897ZM171.747 27V28.0289H173.563L172.63 26.4711L171.747 27ZM162.24 18.16H161.212V19.1888H162.24V18.16ZM168.29 17.271L169.008 18.0085L169.018 17.9985L168.29 17.271ZM168.29 12.4806L167.584 13.2287L167.594 13.2382L168.29 12.4806ZM162.24 11.6411V10.6122H161.212V11.6411H162.24ZM169.945 26.4822L165.846 19.4447L164.068 20.4804L168.167 27.5178L169.945 26.4822ZM164.957 18.9337H162.24V20.9914H164.957V18.9337ZM161.212 19.9625V27H163.269V19.9625H161.212ZM162.24 25.9711H159.993V28.0289H162.24V25.9711ZM161.022 27V9.78909H158.965V27H161.022ZM159.993 10.818H165.549V8.76022H159.993V10.818ZM165.549 10.818C166.737 10.818 167.664 11.0216 168.373 11.376L169.294 9.53555C168.225 9.0011 166.962 8.76022 165.549 8.76022V10.818ZM168.38 11.3794C169.132 11.7486 169.643 12.2206 169.971 12.7792L171.746 11.7376C171.184 10.7817 170.346 10.052 169.287 9.53221L168.38 11.3794ZM169.971 12.7792C170.313 13.3622 170.496 14.043 170.496 14.8511H172.554C172.554 13.7167 172.292 12.6691 171.746 11.7376L169.971 12.7792ZM170.496 14.8511C170.496 15.8205 170.219 16.6443 169.67 17.3627L171.306 18.6115C172.14 17.5192 172.554 16.2523 172.554 14.8511H170.496ZM169.663 17.3722C169.17 18.0342 168.391 18.5275 167.208 18.7842L167.644 20.7952C169.193 20.4592 170.456 19.7509 171.313 18.602L169.663 17.3722ZM166.543 20.3186L170.865 27.5289L172.63 26.4711L168.308 19.2608L166.543 20.3186ZM171.747 25.9711H169.056V28.0289H171.747V25.9711ZM162.24 19.1888H165.549V17.1311H162.24V19.1888ZM165.549 19.1888C166.919 19.1888 168.137 18.8558 169.008 18.0084L167.573 16.5336C167.225 16.8715 166.616 17.1311 165.549 17.1311V19.1888ZM169.018 17.9985C169.852 17.1645 170.233 16.0793 170.233 14.8511H168.175C168.175 15.6313 167.947 16.1594 167.563 16.5435L169.018 17.9985ZM170.233 14.8511C170.233 13.6149 169.855 12.5217 168.986 11.723L167.594 13.2382C167.943 13.5589 168.175 14.046 168.175 14.8511H170.233ZM168.997 11.7326C168.135 10.9187 166.915 10.6122 165.549 10.6122V12.6699C166.653 12.6699 167.26 12.9231 167.584 13.2286L168.997 11.7326ZM165.549 10.6122H162.24V12.6699H165.549V10.6122ZM161.212 11.6411V18.16H163.269V11.6411H161.212Z" fill="white"/>
</svg>
