<svg width="195" height="20" viewBox="0 0 195 20" fill="none" xmlns="http://www.w3.org/2000/svg">
<path d="M0.0897658 19V0.982H12.1538V4.388H4.14577V8.158H11.2698V11.564H4.14577V19H0.0897658ZM15.0195 0.982H19.0755V19H15.0195V0.982ZM35.284 15.516V19H23.246V0.982H27.302V15.516H35.284ZM42.9343 0.982C43.2463 1.554 43.6016 2.26467 44.0003 3.114C44.4163 3.946 44.841 4.856 45.2743 5.844C45.725 6.81467 46.167 7.81133 46.6003 8.834C47.0336 9.85667 47.441 10.8187 47.8223 11.72C48.2036 10.8187 48.611 9.85667 49.0443 8.834C49.4776 7.81133 49.911 6.81467 50.3443 5.844C50.795 4.856 51.2196 3.946 51.6183 3.114C52.0343 2.26467 52.3983 1.554 52.7103 0.982H56.4023C56.5756 2.178 56.7316 3.52133 56.8703 5.012C57.0263 6.48533 57.1563 8.028 57.2603 9.64C57.3816 11.2347 57.4856 12.838 57.5723 14.45C57.6763 16.062 57.763 17.5787 57.8323 19H53.8803C53.8283 17.2493 53.759 15.3427 53.6723 13.28C53.5856 11.2173 53.4556 9.13733 53.2823 7.04C52.9703 7.768 52.6236 8.574 52.2423 9.458C51.861 10.342 51.4796 11.226 51.0983 12.11C50.7343 12.994 50.379 13.8433 50.0323 14.658C49.6856 15.4553 49.391 16.14 49.1483 16.712H46.3143C46.0716 16.14 45.777 15.4553 45.4303 14.658C45.0836 13.8433 44.7196 12.994 44.3383 12.11C43.9743 11.226 43.6016 10.342 43.2203 9.458C42.839 8.574 42.4923 7.768 42.1803 7.04C42.007 9.13733 41.877 11.2173 41.7903 13.28C41.7036 15.3427 41.6343 17.2493 41.5823 19H37.6303C37.6996 17.5787 37.7776 16.062 37.8643 14.45C37.9683 12.838 38.0723 11.2347 38.1763 9.64C38.2976 8.028 38.4276 6.48533 38.5663 5.012C38.7223 3.52133 38.887 2.178 39.0603 0.982H42.9343ZM66.3983 15.906C66.9703 15.906 67.4383 15.8627 67.8023 15.776C68.1836 15.672 68.487 15.542 68.7123 15.386C68.9376 15.2127 69.0936 15.0133 69.1803 14.788C69.267 14.5627 69.3103 14.3113 69.3103 14.034C69.3103 13.4447 69.033 12.9593 68.4783 12.578C67.9236 12.1793 66.9703 11.7547 65.6183 11.304C65.029 11.096 64.4396 10.862 63.8503 10.602C63.261 10.3247 62.7323 9.98667 62.2643 9.588C61.7963 9.172 61.415 8.678 61.1203 8.106C60.8256 7.51667 60.6783 6.806 60.6783 5.974C60.6783 5.142 60.8343 4.39667 61.1463 3.738C61.4583 3.062 61.9003 2.49 62.4723 2.022C63.0443 1.554 63.7376 1.19867 64.5523 0.956C65.367 0.695999 66.2856 0.565999 67.3083 0.565999C68.5216 0.565999 69.5703 0.695999 70.4543 0.956C71.3383 1.216 72.0663 1.502 72.6383 1.814L71.4683 5.012C70.9656 4.752 70.4023 4.52667 69.7783 4.336C69.1716 4.128 68.435 4.024 67.5683 4.024C66.5976 4.024 65.8956 4.16267 65.4623 4.44C65.0463 4.7 64.8383 5.10733 64.8383 5.662C64.8383 5.99133 64.9163 6.26867 65.0723 6.494C65.2283 6.71933 65.445 6.92733 65.7223 7.118C66.017 7.29133 66.3463 7.456 66.7103 7.612C67.0916 7.75067 67.5076 7.898 67.9583 8.054C68.8943 8.40067 69.709 8.74733 70.4023 9.094C71.0956 9.42333 71.6676 9.81333 72.1183 10.264C72.5863 10.7147 72.933 11.2433 73.1583 11.85C73.3836 12.4567 73.4963 13.1933 73.4963 14.06C73.4963 15.7413 72.907 17.05 71.7283 17.986C70.5496 18.9047 68.773 19.364 66.3983 19.364C65.601 19.364 64.8816 19.312 64.2403 19.208C63.599 19.1213 63.027 19.0087 62.5243 18.87C62.039 18.7313 61.6143 18.584 61.2503 18.428C60.9036 18.272 60.609 18.1247 60.3663 17.986L61.5103 14.762C62.0476 15.0567 62.7063 15.3253 63.4863 15.568C64.2836 15.7933 65.2543 15.906 66.3983 15.906ZM76.6171 19V0.982H88.7851V4.388H80.6731V7.924H87.8751V11.252H80.6731V15.594H89.3831V19H76.6171ZM104.449 19C104.258 18.376 104.041 17.7347 103.799 17.076C103.573 16.4173 103.348 15.7587 103.123 15.1H96.1027C95.8774 15.7587 95.6434 16.4173 95.4007 17.076C95.1754 17.7347 94.9674 18.376 94.7767 19H90.5647C91.2407 17.0587 91.882 15.2647 92.4887 13.618C93.0954 11.9713 93.6847 10.42 94.2567 8.964C94.846 7.508 95.418 6.13 95.9727 4.83C96.5447 3.51267 97.134 2.23 97.7407 0.982H101.615C102.204 2.23 102.785 3.51267 103.357 4.83C103.929 6.13 104.501 7.508 105.073 8.964C105.662 10.42 106.26 11.9713 106.867 13.618C107.473 15.2647 108.115 17.0587 108.791 19H104.449ZM99.5867 5.064C99.5 5.324 99.37 5.67933 99.1967 6.13C99.0234 6.58067 98.824 7.10067 98.5987 7.69C98.3734 8.27933 98.122 8.92933 97.8447 9.64C97.5847 10.3507 97.316 11.096 97.0387 11.876H102.161C101.883 11.096 101.615 10.3507 101.355 9.64C101.095 8.92933 100.843 8.27933 100.601 7.69C100.375 7.10067 100.176 6.58067 100.003 6.13C99.8294 5.67933 99.6907 5.324 99.5867 5.064ZM116.401 0.773999C119.105 0.773999 121.176 1.25933 122.615 2.23C124.054 3.18333 124.773 4.674 124.773 6.702C124.773 7.96733 124.478 8.99867 123.889 9.796C123.317 10.576 122.485 11.1913 121.393 11.642C121.757 12.0927 122.138 12.6127 122.537 13.202C122.936 13.774 123.326 14.3807 123.707 15.022C124.106 15.646 124.487 16.3047 124.851 16.998C125.215 17.674 125.553 18.3413 125.865 19H121.315C120.986 18.4107 120.648 17.8127 120.301 17.206C119.972 16.5993 119.625 16.01 119.261 15.438C118.914 14.866 118.568 14.3287 118.221 13.826C117.874 13.306 117.528 12.838 117.181 12.422H115.179V19H111.123V1.242C112.007 1.06867 112.917 0.947333 113.853 0.877999C114.806 0.808666 115.656 0.773999 116.401 0.773999ZM116.635 4.232C116.34 4.232 116.072 4.24067 115.829 4.258C115.604 4.27533 115.387 4.29267 115.179 4.31V9.198H116.323C117.848 9.198 118.94 9.00733 119.599 8.626C120.258 8.24467 120.587 7.59467 120.587 6.676C120.587 5.792 120.249 5.168 119.573 4.804C118.914 4.42267 117.935 4.232 116.635 4.232ZM136.224 19.364C133.294 19.364 131.058 18.5493 129.516 16.92C127.99 15.2907 127.228 12.9767 127.228 9.978C127.228 8.48733 127.462 7.16133 127.93 6C128.398 4.82133 129.039 3.83333 129.854 3.036C130.668 2.22133 131.639 1.606 132.766 1.19C133.892 0.773999 135.114 0.565999 136.432 0.565999C137.194 0.565999 137.888 0.626666 138.512 0.747999C139.136 0.851999 139.682 0.981999 140.15 1.138C140.618 1.27667 141.008 1.424 141.32 1.58C141.632 1.736 141.857 1.85733 141.996 1.944L140.826 5.22C140.271 4.92533 139.621 4.674 138.876 4.466C138.148 4.258 137.316 4.154 136.38 4.154C135.756 4.154 135.14 4.258 134.534 4.466C133.944 4.674 133.416 5.012 132.948 5.48C132.497 5.93067 132.133 6.52 131.856 7.248C131.578 7.976 131.44 8.86 131.44 9.9C131.44 10.732 131.526 11.512 131.7 12.24C131.89 12.9507 132.185 13.566 132.584 14.086C133 14.606 133.537 15.022 134.196 15.334C134.854 15.6287 135.652 15.776 136.588 15.776C137.177 15.776 137.706 15.7413 138.174 15.672C138.642 15.6027 139.058 15.5247 139.422 15.438C139.786 15.334 140.106 15.2213 140.384 15.1C140.661 14.9787 140.912 14.866 141.138 14.762L142.256 18.012C141.684 18.3587 140.878 18.6707 139.838 18.948C138.798 19.2253 137.593 19.364 136.224 19.364ZM155.735 0.982H159.791V19H155.735V11.356H148.923V19H144.867V0.982H148.923V7.872H155.735V0.982ZM163.961 19V0.982H176.129V4.388H168.017V7.924H175.219V11.252H168.017V15.594H176.727V19H163.961ZM185.006 0.773999C187.71 0.773999 189.782 1.25933 191.22 2.23C192.659 3.18333 193.378 4.674 193.378 6.702C193.378 7.96733 193.084 8.99867 192.494 9.796C191.922 10.576 191.09 11.1913 189.998 11.642C190.362 12.0927 190.744 12.6127 191.142 13.202C191.541 13.774 191.931 14.3807 192.312 15.022C192.711 15.646 193.092 16.3047 193.456 16.998C193.82 17.674 194.158 18.3413 194.47 19H189.92C189.591 18.4107 189.253 17.8127 188.906 17.206C188.577 16.5993 188.23 16.01 187.866 15.438C187.52 14.866 187.173 14.3287 186.826 13.826C186.48 13.306 186.133 12.838 185.786 12.422H183.784V19H179.728V1.242C180.612 1.06867 181.522 0.947333 182.458 0.877999C183.412 0.808666 184.261 0.773999 185.006 0.773999ZM185.24 4.232C184.946 4.232 184.677 4.24067 184.434 4.258C184.209 4.27533 183.992 4.29267 183.784 4.31V9.198H184.928C186.454 9.198 187.546 9.00733 188.204 8.626C188.863 8.24467 189.192 7.59467 189.192 6.676C189.192 5.792 188.854 5.168 188.178 4.804C187.52 4.42267 186.54 4.232 185.24 4.232Z" fill="url(#paint0_linear_101_2)"/>
<defs>
<linearGradient id="paint0_linear_101_2" x1="-2" y1="8.5946" x2="195" y2="8.59461" gradientUnits="userSpaceOnUse">
<stop stop-color="#C34FA4"/>
<stop offset="1" stop-color="#F8595E"/>
</linearGradient>
</defs>
</svg>
